<?xml version="1.0" encoding="UTF-8"?>
<svg viewBox="0 0 503.31689 507.09448" xmlns="http://www.w3.org/2000/svg">
 <g transform="translate(-181.8 -367.38)">
  <path transform="translate(166.08 391.57)" d="m234.78 101.49c-13.266 12.737-30.588 24.764-43.137 38.143 2.4901 6.1255 10.299 12.295 14.156 17.788 41.123 50.041 85.134 96.746 126.5 146.57 27.712 33.893 54.297 69.135 77.744 106.07-0.3247 14.069-5.3529 27.57-6.657 41.564 3.9728 8.7138 9.4481 22.686 17.516 28.415 7.6248-1.1868 15.664-10.463 22.178-14.389 16.927-13.398 36.328-26.897 51.283-42.446 5.4469-5.654-5.328-12.847-8.9595-16.971-48.646-58.142-94.246-117.85-142.01-176.96-34.826-43.178-71.237-85.424-107.16-127.69l-0.82075-0.37881z" fill="#83591f"/>
  <path transform="translate(166.08 391.57)" d="m233.35 119.76 21.213 22.223 19.193 29.294s21.213 15.152 23.234 19.193 34.345 46.467 34.345 46.467 24.244 34.345 28.284 38.386 14.142 9.0914 17.173 16.162 30.305 45.457 30.305 45.457 18.183 23.234 20.203 28.284 24.244 36.366 24.244 36.366 5.0508 16.162 5.0508 20.203 4.1632 24.856 8.2038 24.856 25.131-19.806 25.131-19.806l6.0609-7.0711-253.55-317.19-13.132 5.0508z" fill="#bea986"/>
  <path transform="translate(166.08 391.57)" d="m134.53-13.775c-11.239 2.4896-17.112 12.073-22.827 21.487-3.0612 4.9359-3.8016 13.76 1.4007 17.232 3.5128 2.5776 7.8498 10.515 12.14 11.181 10.843-10.182 22.817-25.317 32.702-36.273-5.8151-4.698-11.331-12.823-19.086-14.373 0.46184-2.4876-6.2216-1.4521-4.329 0.74585z" fill="#83591f"/>
  <path transform="translate(166.08 391.57)" d="m42.372 105.99c-6.4328 1.3501-16.032-0.48979-21.778 2.5074-1.7199 15.067 0.62653 32.541 3.7316 47.468 5.2593 20.462 13.501 41.639 29.52 56.015 12.995 10.28 25.434 21.803 40.17 29.496 10.169 3.6266 22.392 8.2342 33.122 9.204 5.7354-0.98718 1.7998-10.467 3.6222-14.381 1.2466-6.7684 4.2125-13.199 5.7452-19.856-6.0519-4.3374-14.481-5.3859-21.087-9.2492-19.969-8.9113-36.774-23.749-48.653-42.215-9.4758-14.547-17.859-30.319-21.711-47.215-1.0624-3.5802 1.3269-9.3808-2.0519-11.806l0.79723-1.7541z" fill="#bbbcbe"/>
  <path transform="translate(166.08 391.57)" d="m184.17-18.068c-31.371 30.694-61.561 62.533-92.208 93.944-12.044 12.141-27.816 19.911-43.654 26.7-1.3675 7.7674 0.01984 15.429 2.6298 22.831s6.4426 14.543 9.9655 21.268c5.2511 8.9759 9.7501 20.654 17.009 29.291s17.277 14.232 26.424 19.613c10.034 6.4252 23.121 11.978 34.71 14.626 5.5465-6.2982 5.1405-15.829 8.6999-23.362 2.9902-7.6956 4.7552-16.186 12.013-21.112 30.412-30.815 62.314-59.892 94.584-88.655 2.0088-3.3524 12.609-6.7265 8.6904-10.748-25.773-27.746-50.758-58.824-78.296-84.679z" fill="#e80000"/>
  <path d="m639.54 782.38-62.382-77.918-62.382-77.918-62.382-77.918-50.382-59.918s32.466-26.873 29.227-30.036c-23.426-22.879-55.157-68.073-79.248-88.088-3.2599-2.7083-24.815 22.61-24.815 22.61l-16.16-14.638c-12.469-11.295-46.543 24.739-34.681 36.67l14.389 14.473-33.967 36.088-20.903 18.044-19.596 9.8423-30.048 4.9211s-1.8414 16.31-1.3064 26.246 1.4796 20.755 5.2257 32.808 11.029 27.865 18.29 37.729 15.336 14.851 23.516 21.325c4.616 3.6533 10.36 8.182 15.018 11.583s8.2284 5.6757 13.724 8.1011 36.58 8.2019 36.58 8.2019l1.3064-14.763 7.8386-24.606 15.677-41.009 34.048-32.808 75.039 89.401 56.83 65.615 47.685 59.874 38.54 56.593-4.9972 38.489c-0.87408 6.7323 11.775 29.875 17.28 30.106 7.9423 0.33258 32.311-19.137 38.668-25.124 8.7927-8.2802 44.642-30.296 35.463-40.509z" fill="none" stroke="#000" stroke-width="6"/>
  <path d="m213.64 495.31s-1.0887 13.67 0 16.404 3.4795 9.8331 6.5321 16.404 6.4629 15.763 11.758 22.965 12.626 17.768 18.29 23.786 10.39 7.877 15.677 12.303 14.153 8.2019 16.984 9.8423 21.048 8.2019 23.819 8.2019" fill="none" stroke="#000" stroke-width="5.7968"/>
  <path transform="translate(166.08 391.57)" d="m124.29 38.461 57.412-57.841" fill="none" stroke="#000" stroke-width="6"/>
  <path d="m355.99 530.54 47.477-43.437" fill="none" stroke="#000" stroke-width="6"/>
  <path d="m194.47 546.74 11.057 30.139s9.4886 16.359 11.433 17.508 19.097 16.525 19.097 16.525l23.128 16.807c4.177 1.811 9.7826 3.4434 15.388 5.0759s11.211 3.2649 15.388 5.0759c0 0-1.0846-7.5692-0.9084-10.088s2.3494-8.0615 2.9942-10.042 0.82862-8.4244 0.82862-8.4244l-6.1412 8.1778-2.72 9.936s-8.0968-0.0599-10.51-1.7476-41.347-25.942-43.292-27.091-13.484-15.359-17.737-19.707c-3.4783-3.5561-18.005-32.144-18.005-32.144z" fill="#e9e9e9"/>
  <path transform="translate(166.08 391.57)" d="m187.14-4.3958-121.43 115.71-4.2857 8.5714 8.5714 24.286 17.143 21.429 15.714 12.857 20 15.714 12.857-4.2857 5.7143-17.143h-18.571l-21.429-21.429-12.857-17.143-7.1429-17.143 50-54.286z" fill="#c40000"/>
  <path transform="matrix(.73046,-.68296,.66294,.74867,0,0)" d="m-79.759 632.67h56.171a3.6213 3.6213 0 0 1 3.6213 3.6213v4.4689a3.6213 3.6213 0 0 1 -3.6213 3.6213h-56.171a3.6213 3.6213 0 0 1 -3.6213 -3.6213v-4.4689a3.6213 3.6213 0 0 1 3.6213 -3.6213"/>
  <g transform="matrix(-1 0 0 1 866.92 0)">
   <path transform="translate(166.08 391.57)" d="m234.78 101.49c-13.266 12.737-30.588 24.764-43.137 38.143 2.4901 6.1255 10.299 12.295 14.156 17.788 41.123 50.041 85.134 96.746 126.5 146.57 27.712 33.893 54.297 69.135 77.744 106.07-0.3247 14.069-5.3529 27.57-6.657 41.564 3.9728 8.7138 9.4481 22.686 17.516 28.415 7.6248-1.1868 15.664-10.463 22.178-14.389 16.927-13.398 36.328-26.897 51.283-42.446 5.4469-5.654-5.328-12.847-8.9595-16.971-48.646-58.142-94.246-117.85-142.01-176.96-34.826-43.178-71.237-85.424-107.16-127.69l-0.82075-0.37881z" fill="#83591f"/>
   <path transform="translate(166.08 391.57)" d="m233.35 119.76 21.213 22.223 19.193 29.294s21.213 15.152 23.234 19.193 34.345 46.467 34.345 46.467 24.244 34.345 28.284 38.386 14.142 9.0914 17.173 16.162 30.305 45.457 30.305 45.457 18.183 23.234 20.203 28.284 24.244 36.366 24.244 36.366 5.0508 16.162 5.0508 20.203 4.1632 24.856 8.2038 24.856 25.131-19.806 25.131-19.806l6.0609-7.0711-253.55-317.19-13.132 5.0508z" fill="#bea986"/>
   <path transform="translate(166.08 391.57)" d="m134.53-13.775c-11.239 2.4896-17.112 12.073-22.827 21.487-3.0612 4.9359-3.8016 13.76 1.4007 17.232 3.5128 2.5776 7.8498 10.515 12.14 11.181 10.843-10.182 22.817-25.317 32.702-36.273-5.8151-4.698-11.331-12.823-19.086-14.373 0.46184-2.4876-6.2216-1.4521-4.329 0.74585z" fill="#83591f"/>
   <path transform="translate(166.08 391.57)" d="m42.372 105.99c-6.4328 1.3501-16.032-0.48979-21.778 2.5074-1.7199 15.067 0.62653 32.541 3.7316 47.468 5.2593 20.462 13.501 41.639 29.52 56.015 12.995 10.28 25.434 21.803 40.17 29.496 10.169 3.6266 22.392 8.2342 33.122 9.204 5.7354-0.98718 1.7998-10.467 3.6222-14.381 1.2466-6.7684 4.2125-13.199 5.7452-19.856-6.0519-4.3374-14.481-5.3859-21.087-9.2492-19.969-8.9113-36.774-23.749-48.653-42.215-9.4758-14.547-17.859-30.319-21.711-47.215-1.0624-3.5802 1.3269-9.3808-2.0519-11.806l0.79723-1.7541z" fill="#bbbcbe"/>
   <path transform="translate(166.08 391.57)" d="m184.17-18.068c-31.371 30.694-61.561 62.533-92.208 93.944-12.044 12.141-27.816 19.911-43.654 26.7-1.3675 7.7674 0.01984 15.429 2.6298 22.831s6.4426 14.543 9.9655 21.268c5.2511 8.9759 9.7501 20.654 17.009 29.291s17.277 14.232 26.424 19.613c10.034 6.4252 23.121 11.978 34.71 14.626 5.5465-6.2982 5.1405-15.829 8.6999-23.362 2.9902-7.6956 4.7552-16.186 12.013-21.112 30.412-30.815 62.314-59.892 94.584-88.655 2.0088-3.3524 12.609-6.7265 8.6904-10.748-25.773-27.746-50.758-58.824-78.296-84.679z" fill="#e80000"/>
   <path d="m639.54 782.38-62.382-77.918-62.382-77.918-62.382-77.918-50.382-59.918s32.466-26.873 29.227-30.036c-23.426-22.879-55.157-68.073-79.248-88.088-3.2599-2.7083-24.815 22.61-24.815 22.61l-16.16-14.638c-12.469-11.295-46.543 24.739-34.681 36.67l14.389 14.473-33.967 36.088-20.903 18.044-19.596 9.8423-30.048 4.9211s-1.8414 16.31-1.3064 26.246 1.4796 20.755 5.2257 32.808 11.029 27.865 18.29 37.729 15.336 14.851 23.516 21.325c4.616 3.6533 10.36 8.182 15.018 11.583s8.2284 5.6757 13.724 8.1011 36.58 8.2019 36.58 8.2019l1.3064-14.763 7.8386-24.606 15.677-41.009 34.048-32.808 75.039 89.401 56.83 65.615 47.685 59.874 38.54 56.593-4.9972 38.489c-0.87408 6.7323 11.775 29.875 17.28 30.106 7.9423 0.33258 32.311-19.137 38.668-25.124 8.7927-8.2802 44.642-30.296 35.463-40.509z" fill="none" stroke="#000" stroke-width="6"/>
   <path d="m213.64 495.31s-1.0887 13.67 0 16.404 3.4795 9.8331 6.5321 16.404 6.4629 15.763 11.758 22.965 12.626 17.768 18.29 23.786 10.39 7.877 15.677 12.303 14.153 8.2019 16.984 9.8423 21.048 8.2019 23.819 8.2019" fill="none" stroke="#000" stroke-width="5.7968"/>
   <path transform="translate(166.08 391.57)" d="m124.29 38.461 57.412-57.841" fill="none" stroke="#000" stroke-width="6"/>
   <path d="m355.99 530.54 47.477-43.437" fill="none" stroke="#000" stroke-width="6"/>
   <path d="m194.47 546.74 11.057 30.139s9.4886 16.359 11.433 17.508 19.097 16.525 19.097 16.525l23.128 16.807c4.177 1.811 9.7826 3.4434 15.388 5.0759s11.211 3.2649 15.388 5.0759c0 0-1.0846-7.5692-0.9084-10.088s2.3494-8.0615 2.9942-10.042 0.82862-8.4244 0.82862-8.4244l-6.1412 8.1778-2.72 9.936s-8.0968-0.0599-10.51-1.7476-41.347-25.942-43.292-27.091-13.484-15.359-17.737-19.707c-3.4783-3.5561-18.005-32.144-18.005-32.144z" fill="#e9e9e9"/>
   <path transform="translate(166.08 391.57)" d="m187.14-4.3958-121.43 115.71-4.2857 8.5714 8.5714 24.286 17.143 21.429 15.714 12.857 20 15.714 12.857-4.2857 5.7143-17.143h-18.571l-21.429-21.429-12.857-17.143-7.1429-17.143 50-54.286z" fill="#c40000"/>
   <path transform="matrix(.73046,-.68296,.66294,.74867,0,0)" d="m-79.759 632.67h56.171a3.6213 3.6213 0 0 1 3.6213 3.6213v4.4689a3.6213 3.6213 0 0 1 -3.6213 3.6213h-56.171a3.6213 3.6213 0 0 1 -3.6213 -3.6213v-4.4689a3.6213 3.6213 0 0 1 3.6213 -3.6213"/>
  </g>
 </g>
</svg>
