<?xml version="1.0" encoding="UTF-8"?>
<svg version="1.1" viewBox="0 0 268.21 259.25" xmlns="http://www.w3.org/2000/svg">
 <g transform="translate(9.9057 -400.28)">
  <g transform="matrix(4.6928 -.80111 .80111 4.6928 -2827.8 -2677.9)">
   <g fill="#50260e">
    <path d="m501.26 741.64c-0.90523 0.0247-1.8077 0.26717-2.6875 0.4375v0.0625c-6.8854 0.20192-12.605 2.589-17.125 7.2188-0.60702 0.62174-1.1584 1.2725-1.6875 1.9375-0.027 0.0259-0.0671 0.0362-0.0937 0.0625 0.85619-1.411-1.4948 1.4714-1.9062 2.0938-1.6434 2.139-2.8725 4.5663-3.7188 7.0938l1.0625 0.3438c-0.19233 0.81854-0.31778 1.6724-0.4375 2.5312l-1.75-0.5312-1.75-0.5312h-0.0937c-0.99507 2.294-1.6669 4.7221-1.9375 7.2188-0.0449 2.8898-0.35205 5.9187 0.40625 8.8438 0.85382 4.7831 2.911 9.4397 5.9688 13.219l0.0937-0.125 0.75-0.6562 0.0937-0.0937 0.125-0.0937 2.5625-2.1562c2.5542 2.3368 5.5664 4.1796 8.7812 5.4375 2.1484 0.6029 4.3483 1.8026 6.375 0.96875 1.7354 1.3337 4.359 0.4833 6.4688 0.4375 0.44917-0.29641 2.4736 0.16128 1.8125-0.90625 2.4479 0.54319 4.5838-0.84225 6.8438-1.5312 1.8647-0.57667 3.0486-1.8666 4.4375-2.9375l-0.3438-0.5312c0.39834-0.25712 0.80245-0.49906 1.1875-0.78125l1.2812 1.3438c-9e-3 0.0112-0.0225 0.0201-0.0312 0.0312l0.1562 0.1562 0.7188 0.75c0.25026-0.20248 0.50108-0.38694 0.78125-0.5625 1.8568-1.6136 2.9972-3.3221 4.4062-5.5938 3.4098-5.7337 4.1358-12.567 2.8438-19.031-0.17481-2.8282-0.72478-5.4704-1.6562-7.9062l1.0625-0.5312c-0.93797-2.2763-2.9273-3.9102-3.9062-6.1562-0.44784-1.4862-1.9641-1.7294-3.125-2.2188-0.4242-0.40832-0.86955-0.78448-1.3125-1.1562-0.0853-0.24731-0.0967-0.54827-0.0625-0.90625-3.7289-2.8372-8.3318-4.6456-12.969-5.0312-0.5363-0.1788-1.0819-0.23354-1.625-0.21875z"/>
    <path d="m481.6 786.08c0.0309 0.0308 0.0627 0.063 0.0937 0.0937l-1.0938 0.9375 1-1.0312z"/>
   </g>
   <path d="m474.36 767.82c0 7.4141 2.4523 13.535 7.3568 18.363 4.9045 4.8281 10.72 7.2421 17.446 7.2422 7.4396-5e-5 13.592-2.4268 18.459-7.2804 4.8663-4.8536 7.2994-10.987 7.2995-18.402-3e-5 -7.3632-2.4077-13.478-7.223-18.344-4.8154-4.8663-10.879-7.2995-18.191-7.2995-7.3122 0-13.331 2.4204-18.058 7.2612-4.7262 4.8408-7.0893 10.994-7.0893 18.459z" fill="#1e0e05"/>
   <g fill="#bb803e" stroke-width=".7" style="text-indent:0;text-transform:none">
    <path d="m497.74 772.41 1.9688-1.4375 0.0937 0.1875-2.0625 1.25z"/>
    <path d="m500.27 770.91v-0.3438l0.5-0.375 0.3438 0.2188-0.8438 0.5z"/>
    <path d="m499.77 770.63-1.2812-1.8438 1.3125 0.8125v0.0312l0.0625 0.9375-0.0937 0.0625z"/>
    <path d="m500.27 770.32 0.0312-0.4375 0.3125 0.2188-0.3438 0.2188z"/>
   </g>
   <g fill="#ae5919">
    <path d="m497.74 772.41 1.9688-1.4375 0.0937 0.1875-2.0625 1.25z"/>
    <path d="m500.27 770.91v-0.3438l0.5-0.375 0.3438 0.2188-0.8438 0.5z"/>
    <path d="m499.77 770.63-1.2812-1.8438 1.3125 0.8125v0.0312l0.0625 0.9375-0.0937 0.0625z"/>
    <path d="m500.27 770.32 0.0312-0.4375 0.3125 0.2188-0.3438 0.2188z"/>
   </g>
   <path d="m500.74 795.11c-1.5195 0.13854-2.9158-0.79608-4.4505-0.7167-3.434 0.23831-6.5041-1.1172-9.7427-1.823-3.0437-0.61842-5.2661-2.4792-7.0637-4.8384l1.0864-0.59 2.4484-2.1638 2.824-2.8775 3.3911-3.1127 2.6849-1.8176 3.2321-3.1225 0.8625-0.8433 0.1816-0.0563 0.4081-0.245 1.6689-1.1742 0.8709 4.2967-0.1087-1.026-0.354-2.8218 1.1911 1.7928 2.5344 4.0063 1.3106 1.051 0.9223 1.6718 2.9096 1.9049 1.7728 3.5111 3.0348 1.6671 0.9109 1.3579c-0.0349 0.0372-0.0773 0.072-0.11117 0.10976-0.81803 2.4962-4.8791 1.1366-6.2185 3.6566-2.0464-0.40681-4.2073 1.2532-6.1964 2.2028z" fill="#bb803e" stroke-width=".7" style="text-indent:0;text-transform:none"/>
   <path d="m500.75 795.36c-2.1098 0.0458-4.7276 0.89193-6.463-0.44175-2.0267 0.83386-4.2275-0.3554-6.3759-0.9583-3.3781-1.3218-6.5166-3.3086-9.1525-5.8146l1.6718-0.9223c0.32208 0.34526 0.6575 0.71771 0.96153 1.0356 0.65738 1.4974 1.547 1.7397 2.9208 1.5249 1.1318 2.0808 2.8123 0.59113 4.6676 2.0748 2.4444 1.2278 5.2655 2.1973 7.8932 1.4449 1.0023 0.0213 1.6747 0.82141 2.8685 0.68049 3.2925-1.2295 6.999-0.78845 9.8442-3.2057 1.5277-0.10528 2.6331-0.83282 3.604-1.7855l0.6702 0.9808c-1.3889 1.0709-2.5905 2.366-4.4552 2.9426-2.26 0.689-4.3763 2.0747-6.8242 1.5316 0.66109 1.0675-1.3817 0.61606-1.8308 0.91247z" fill="#1e0e05"/>
   <path d="m496.85 786.72c-0.9578-0.11148-0.41169-1.8382-1.4402-1.538-3.6264 0.25989-7.2439-0.60511-9.9005-2.7477l0.3335-0.3294 3.3911-3.1127 2.6849-1.8176 3.2321-3.1225 0.8625-0.8433 0.1816-0.0563 0.4081-0.245 1.6689-1.1742 0.8709 4.2967-0.1087-1.026-0.354-2.8218 1.1911 1.7928 2.5344 4.0063 1.3106 1.051 0.9223 1.6718 2.4958 1.6461c-3.277 1.732-6.8347 3.072-10.284 4.3698z" fill="#ae5919"/>
   <path d="m498.46 781.39c-3.6485-0.0941-7.7576 0.55822-10.538-1.1782l1.3157-1.2206 2.6849-1.8176 3.2321-3.1225 0.8625-0.8433 0.0309-4e-3 1.9784-1.9104 0.1182 0.1731-1.8884 1.6458 0.3504-0.2056 1.6689-1.1742 0.8709 4.2967-0.1087-1.026-0.354-2.8218 1.1911 1.7928 2.5344 4.0063 1.3106 1.051 0.3365 0.6164c-1.4392 0.51053-2.9695 0.86912-4.723 1.213-0.29521 0.17225-0.58636 0.35595-0.87388 0.5294z" fill="#ba6422"/>
   <path d="m516.06 790.14-2.2214-2.3913-3.2957-2.4752-1.6197-1.6917-2.1886-1.9506-2.374-2.3578-1.4024-1.8675-2.3777-2.229-0.8929-0.8596-0.0268-0.1221 1.0562-0.8721 0.5554 0.1979-0.4706-0.2485 0.4347-0.3515 2.5292-1.7398 5.5266-3.6785 1.3872-1.8407 2.3216-1.3742 3.8148-2.1504 1.5746-2.2979 2.0707-1.3511c1.2827 2.344 2.2804 4.8369 2.8267 7.4737 1.0446 3.2147 0.0145 6.7441 1.3704 9.8735-0.46572 3.0165-2.426 5.6076-3.5241 8.4217-0.75001 2.7642-3.3879 4.0764-5.0741 5.8828z" fill="#bb803e" stroke-width=".7" style="text-indent:0;text-transform:none"/>
   <path d="m516.81 790.93-0.7067-0.7405-0.1623-0.1563c0.8042-1.0204 1.4993-2.2002 2.3293-3.2317 1.9343-0.74012 1.6047-3.4594 3.0497-4.0299 0.38312-2.5514 0.72806-5.3205 2.4167-7.3464 0.14471-1.6847-1.4464-3.6696 0.14741-5.1518 0.0979 0.16905 0.1558 0.22611 0.18247 0.24786-0.0399-0.22322-0.689-1.6089-1.077-1.843 0.17245-2.5077-0.95721-4.8158-1.6645-7.2812 0.0807-1.209-0.23159-2.1685-0.72523-3.0082l1.3986-0.9154c4.2743 8.4096 4.9495 19.034 0.022 27.32-1.4091 2.2717-2.5489 3.9622-4.4057 5.5759-0.28017 0.17556-0.55435 0.35834-0.80461 0.56082z" fill="#1e0e05"/>
   <path d="m509.39 784.09-0.4632-0.5061-2.1886-1.9506-2.374-2.3578-1.4024-1.8675-2.3777-2.229-0.8929-0.8596-0.0268-0.1221 1.0562-0.8721 0.5554 0.1979-0.4706-0.2485 0.4347-0.3515 2.5292-1.7398 5.5266-3.6785 1.3872-1.8407 2.3216-1.3742 2.7898-1.5731c2.0426 4.7386 2.0124 10.419 0.39525 15.335-1.8732 2.4176-4.227 4.362-6.7997 6.0381z" fill="#ae5919"/>
   <path d="m506.57 781.47-2.2117-2.2015-1.4024-1.8675-2.3777-2.229-0.8929-0.8596-0.0268-0.1221 1.0562-0.8721 0.5554 0.1979-0.4706-0.2485 0.4347-0.3515 2.5292-1.7398 5.5266-3.6785 1.3872-1.8407 0.1697-0.1013c0.6085 0.8477 1.2292 1.6979 1.8753 2.5634 1.4025 3.2092-0.16432 6.628-1.8062 10.124-1.4124 1.4458-2.8207 2.4474-4.346 3.227z" fill="#ba6422"/>
   <path d="m471.92 762.61c-1.5398 2.7868-1.3032 5.9708-1.941 9.0216-1.3221 2.9919-0.18758 6.2376 0.96071 9.1051 1.0411 2.9265 1.7135 6.1172 3.8707 8.514 0.49906 0.53967 1.0265 1.0811 1.5467 1.6058l3.3648-2.8396 2.2375-2.2975 2.877-2.7298 3.245-3.2291 2.098-2.4904 3.1505-3.0797 1.4129-1.4072 0.0167-0.0678 0.0838-0.3392 0.5882-1.7981-2.7143-0.9585-2.9239-0.7512-4.6557-1.8988-3.6258-0.8814-1.6289-0.6903-2.4369-1.1491-5.5261-1.6388z" fill="#bb803e" stroke-width=".7" style="text-indent:0;text-transform:none"/>
   <path d="m471.06 762.36c-0.99507 2.294-1.6584 4.7284-1.929 7.2251-0.0449 2.8898-0.33725 5.9172 0.42105 8.8422 0.85382 4.7831 2.8935 9.4237 5.9513 13.203l0.1014-0.1189 0.9671-0.8263c-0.5044-0.49582-0.97179-1.0443-1.3943-1.6401 0.86685-2.1745-1.4762-2.5408-1.5585-4.6462-1.6515-1.9536-1.9983-3.9381-1.763-6.2658-1.0799-1.1055-1.7235-3.8354-0.53247-3.788 0.0936-2.4652-0.98043-4.9156 7e-3 -7.3689 0.38627-1.065 0.96701-2.5482 1.5818-4.0718l-1.7539-0.5341-0.0983-0.01z" fill="#1e0e05"/>
   <path d="m479.38 765.16c-0.26122 0.5573-0.46494 1.163-0.62554 1.7745-0.84975 4.5148-2.2719 9.1368-0.2034 13.467 0.64619 2.0273 1.8357 3.8436 3.384 5.3563l0.0236-0.0373 2.877-2.7298 3.245-3.2291 2.098-2.4904 3.1505-3.0797 1.4129-1.4072 0.0167-0.0678 0.0838-0.3392 0.5882-1.7981-2.7143-0.9585-2.9239-0.7512-4.6557-1.8988-3.6258-0.8815-1.6289-0.6903-0.5023-0.2393z" fill="#ae5919"/>
   <g transform="matrix(.97558 -.21963 .21963 .97558 223.47 280.92)">
    <path d="m146.03 530.41c-0.51229 0.59191-0.93496 1.3209-1.2188 2.2188-1.8696 1.9566-2.1726 4.7065-1.4375 7.5938 3e-3 0.0106-3e-3 0.0208 0 0.0312-0.12145 1.8663 0.60883 4.3083 1.9062 6.625l3.3125-2.0938 2.5938-1.9688 3.75-2.3125 1.6875-1.0625 0.0312-0.0625 0.0937-0.1562 1.25-0.625v-0.0312l0.0625-0.9375-0.0937-0.0625-0.9062 1.0625 0.7188-1.1875-2.4375-1.5312-2.6875-1.375-4.125-2.875-2.5-1.25z" fill="#ba6422"/>
   </g>
   <path d="m501.43 771.61-0.034-0.0281-0.3009-0.1908 0.6083-0.5295-0.2399 0.1172-0.3834 0.2567-0.1184 0.0742-0.5336-0.3254-0.1223-2.2486-0.3147-6.5311-0.3681-2.1936-0.0649-2.6309-0.0992-4.2915-0.2978-4.398-0.4869-5.3844c2.8291 0.12041 5.709-0.12954 8.424 0.75884 2.6539 0.64186 4.8851 2.1105 7.3008 3.4413 1.8391 1.9018 3.4769 3.9985 5.4484 5.723 1.0018 1.5969 1.9052 3.2916 2.6805 5.0162l-1.2274 0.6205-3.2814 2.7646-4.6718 2.0194-3.8222 2.6911-2.9346 1.4755-3.6637 2.7072-1.4966 1.0859z" fill="#bb803e" stroke-width=".7" style="text-indent:0;text-transform:none"/>
   <path d="m522.55 758.22c-0.60941-0.92846-1.3476-1.8179-1.9672-2.8245 0.9028-0.13141-0.97228-1.8446-1.2744-1.8238-1.733-2.1724-2.5922-4.4912-5.2881-5.3617-1.7666-1.2759-2.3116-2.9409-4.6573-2.7225-2.1683-1.7084-4.7454-1.4662-6.9728-1.338-1.2263-0.22352-2.4504-0.19895-3.6532-0.11926l-0.1407-1.462-0.0168-0.5007c1.4077-0.27253 2.8835-0.67226 4.3136-0.19547 4.6369 0.38568 9.2192 2.1953 12.948 5.0325-0.27392 2.8638 3.7488 1.701 4.524 4.2737 0.97895 2.246 2.951 3.8794 3.889 6.1557l-1.7041 0.8861z" fill="#1e0e05"/>
   <path d="m501.43 771.61-0.034-0.0281-0.3009-0.1908 0.6083-0.5295-0.2399 0.1172-0.3834 0.2567-0.1184 0.0742-0.5336-0.3254-0.1223-2.2486-0.3147-6.5311-0.3681-2.1936-0.0649-2.6309-0.0992-4.2915-0.1216-1.5894c1.0504 0.0115 2.1279 0.14386 3.2477 0.47224 4.1886-1.2108 6.6786 1.6943 10.249 3.4087 2.1938 1.7989 3.698 4.0356 4.6433 6.4912l-4.1298 1.7789-3.8222 2.6911-2.9346 1.4755-3.6637 2.7072-1.4966 1.0859z" fill="#ae5919"/>
   <g fill="#ba6422">
    <path d="m500.52 772.3-0.0329-0.3422 0.4618-0.4212 0.3631 0.1848-0.792 0.5785z"/>
    <path d="m500.46 771.71-0.0109-0.4385 0.332 0.1878-0.3212 0.2507z"/>
    <path d="m501.43 771.61-0.034-0.0281-0.3009-0.1908 0.6083-0.5295-0.2399 0.1172-0.3834 0.2567-0.1184 0.0742-0.5336-0.3254-0.1223-2.2486-0.3147-6.5311-0.3681-2.1936-0.0649-2.6309-0.0373-1.6917c6.4098-1.8225 9.3977 2.9088 12.651 8.797l-2.6468 1.8559-2.9346 1.4755-3.6637 2.7073-1.4966 1.0859z"/>
   </g>
   <path d="m500.16 771.66-2.3468-1.19-2.6491-1.4523-5.6993-1.9733-1.9754-1.417-3.1952-0.272-3.1225-2.128-4.3489-1.7125-1.5968-0.565c0.89896-2.1199 1.9299-4.1786 3.2054-6.0841 2.0994-2.2882 3.3983-5.5988 6.6623-6.4637 3.3833-0.91202 5.9097-3.958 9.6178-3.8603 0.2641 0.0115 0.53199 0.0125 0.79662 0.0128l0.6978 3.1127 0.7583 6.2151 0.5379 2.7608 0.8018 3.5067 0.3699 4.4436 0.5554 3.2023 0.9309 3.8642z" fill="#bb803e" stroke-width=".7" style="text-indent:0;text-transform:none"/>
   <path d="m475.53 761.05-1.4934-0.5205c0.84621-2.5275 2.0804-4.9297 3.7238-7.0687 0.41146-0.62233 2.7593-3.5073 1.9031-2.0963 2.025-2 5.0284-2.9088 7.1798-4.3346 1.0056-2.7076 4.2385-2.7554 6.6332-3.5037 0.59908 0.1693 1.2008 0.15398 1.8197 0.0476l0.3996 1.833c-0.50485 0.0875-0.99899 0.16405-1.5118 0.24546-3.4658-0.21707-5.7107 1.9093-8.5983 3.3556-3.205 2.4651-6.1812 5.3832-7.9973 9.0595-0.78636 0.90544-1.4897 1.8947-2.0584 2.9826z" fill="#1e0e05"/>
   <path d="m500.16 771.66-2.3468-1.19-2.6491-1.4523-5.6993-1.9733-1.9754-1.417-3.1952-0.272-2.104-1.4252c1.1397-2.4297 2.9149-4.6282 5.0722-6.2992 2.9822-2.1285 6.0466-4.218 9.566-4.8357l0.1358 1.0871 0.5379 2.7608 0.8018 3.5067 0.3699 4.4436 0.5554 3.2023 0.9309 3.8642z" fill="#ae5919"/>
   <path d="m500.16 771.66-2.3468-1.19-2.6491-1.4523-5.6993-1.9733-1.9754-1.417-1.0036-0.1019c1.8001-4.6625 5.6548-9.0271 10.964-8.3009 0.0321-7e-3 0.0601-0.0105 0.0922-0.0169 0.031-0.0148 0.0557-0.0333 0.0865-0.0476l0.6753 2.9897 0.3699 4.4436 0.5554 3.2023 0.9309 3.8642z" fill="#ba6422"/>
  </g>
 </g>
</svg>
